<svg width="1024" height="256" viewBox="0 0 1024 256" fill="none" xmlns="http://www.w3.org/2000/svg">
<path d="M1117.61 255.837L1085.85 249.111C1054.09 241.947 990.535 229.154 928.008 180.131C865.481 131.108 803.92 48.0505 739.897 51.7264C675.873 55.4024 609.325 148.008 544.139 192.635C478.94 237.702 415.072 235.888 351.539 222.327C287.992 209.205 224.81 183.238 161.432 164.188C98.0731 144.479 34.5173 131.686 2.76127 124.521L-29.0073 117.796L-23.0217 -93L8.91205 -92.0932C40.8458 -91.1865 104.713 -89.3729 168.581 -87.5594C232.448 -85.7459 296.316 -83.9324 360.183 -82.1188C424.051 -80.3053 487.918 -78.4918 551.786 -76.6783C615.653 -74.8648 679.521 -73.0512 743.388 -71.2377C807.256 -69.4242 871.123 -67.6107 934.991 -65.7971C998.858 -63.9836 1062.73 -62.1701 1094.66 -61.2633L1126.59 -60.3566L1117.61 255.837Z" fill="#B50101" fill-opacity="0.1"/>
</svg>
