<svg xmlns="http://www.w3.org/2000/svg" width="16" height="18" viewBox="0 0 14 17" fill="none">
  <path d="M7 17C7.9625 17 8.75 16.2154 8.75 15.2564H5.25C5.25 15.7188 5.43437 16.1623 5.76256 16.4893C6.09075 16.8163 6.53587 17 7 17ZM12.25 11.7692V7.41026C12.25 4.73385 10.815 2.49333 8.3125 1.90051V1.30769C8.3125 0.584103 7.72625 0 7 0C6.27375 0 5.6875 0.584103 5.6875 1.30769V1.90051C3.17625 2.49333 1.75 4.72513 1.75 7.41026V11.7692L0 13.5128V14.3846H14V13.5128L12.25 11.7692Z" fill="#B50101"/>
</svg>